# xmcd
#
# Track frame offsets:
#	150
#	26125
#	54882
#	73205
#	90977
#	125285
#	151973
#	174023
#	197511
#
# Disc length: 3074 seconds
#
# Revision: 1
# Processed by: cddbd v1.5.2PL0 Copyright (c) Steve Scherf et al.
# Submitted via: audiograbber 1.83.01
#
DISCID=660c0009
DTITLE=Ernie Williams and the Wildcats - Sister
DYEAR=1998
DGENRE=Blues
TTITLE0=Can't Shake That Woman
TTITLE1=Can't Hear the Music
TTITLE2=Time to Move On
TTITLE3=Time for a Change
TTITLE4=Cold Hearted Demon
TTITLE5=Why Do I Do the Things I Do?
TTITLE6=It's Late
TTITLE7=Mother's Church
TTITLE8=Sister
EXTD=
EXTT0=
EXTT1=
EXTT2=
EXTT3=
EXTT4=
EXTT5=
EXTT6=
EXTT7=
EXTT8=
PLAYORDER=
